
        <svg xmlns="http://www.w3.org/2000/svg" xmlns:xlink="http://www.w3.org/1999/xlink" version="1.1" width="3187.5" height="1125" viewBox="0 0 3187.5 1125">
			
			<g transform="scale(9.375) translate(10, 10)">
				<defs id="SvgjsDefs1973"><linearGradient id="SvgjsLinearGradient1978"><stop id="SvgjsStop1979" stop-color="#ee2a7b" offset="0"/><stop id="SvgjsStop1980" stop-color="#ff7db8" offset="1"/></linearGradient></defs><g id="SvgjsG1974" featureKey="S6ay6y-0" transform="matrix(0.1485884101040119,0,0,0.1485884101040119,0,0)" fill="#fff"><defs xmlns="http://www.w3.org/2000/svg"/><g xmlns="http://www.w3.org/2000/svg"><path class="fil0" d="M337 0c185,0 336,151 336,337 0,185 -151,336 -336,336 -186,0 -337,-151 -337,-336 0,-186 151,-337 337,-337zm0 17c-176,0 -320,142 -320,320 0,176 143,319 320,319 176,0 319,-143 319,-319 0,-177 -143,-320 -319,-320zm0 37c-156,0 -283,127 -283,283 0,155 127,282 283,282 155,0 282,-127 282,-282 0,-127 -84,-235 -199,-270 -27,-8 -55,-13 -83,-13zm0 -17c165,0 299,134 299,300 0,165 -134,299 -299,299 -166,0 -300,-134 -300,-299 0,-166 134,-300 300,-300z" style="fill: url(#SvgjsLinearGradient1978); fill-rule: nonzero;"/></g></g><g id="SvgjsG1975" featureKey="j5pGhi-0" transform="matrix(2.3480850912128552,0,0,2.3480850912128552,118.69297584251964,17.842183393808096)" fill="#fff"><path d="M0.55664 16.4941 l1.2305 -0.74219 q1.298828125 2.392578125 2.998046875 2.392578125 q0.732421875 0 1.376953125 -0.341796875 t0.97656 -0.9082 t0.33203 -1.2109 q0 -0.72265625 -0.48828125 -1.42578125 q-0.68359375 -0.966796875 -2.490234375 -1.97265625 q-1.81640625 -1.3671875 -2.24609375 -1.982421875 q-0.771484375 -1.015625 -0.771484375 -2.216796875 q0 -0.947265625 0.44921875 -1.71875 t1.2744 -1.2256 t1.792 -0.4541 q1.015625 0 1.904296875 0.5126953125 t1.8848 1.8701 l-1.1816 0.88867 q-0.810546875 -1.07421875 -1.38671875 -1.420898438 t-1.2598 -0.34668 q-0.869140625 0 -1.42578125 0.5322265625 t-0.55664 1.3037 q0 0.46875 0.1953125 0.91796875 t0.72266 0.95703 q0.283203125 0.283203125 1.875 1.455078125 q1.875 1.38671875 2.573242188 2.294921875 t0.69824 1.9922 q0 1.58203125 -1.196289063 2.744140625 t-2.9053 1.1621 q-1.328125 0 -2.40234375 -0.703125 t-1.9727 -2.3535 z M10.410156875 8.477 l1.4551 0 l3.6816 8.252 l3.5742 -8.252 l1.4746 0 l-6.3965 14.619 l-1.4551 0 l2.0605 -4.7168 z M22.353478125 15.3809 l-0.019531 -1.1426 q-0.029296875 -0.83984375 0.068359375 -1.42578125 q0.21484375 -1.845703125 0.9375 -2.705078125 q0.703125 -0.751953125 1.435546875 -1.162109375 q1.2109375 -0.517578125 2.763671875 -0.48828125 q1.2109375 0 2.241210938 0.6103515625 t1.4697 1.6406 t0.43945 3.2275 l0 5.5078 l-1.3672 0 l0 -5.1074 q0 -1.85546875 -0.15625 -2.48046875 q-0.244140625 -1.064453125 -0.966796875 -1.508789063 t-2.1387 -0.44434 q-1.25 0 -2.2265625 0.72265625 t-0.9082 1.9727 q-0.185546875 0.80078125 -0.185546875 2.919921875 l0 3.9258 l-1.3867 0 l0 -4.0625 z M38.486303125 17.9297 q-1.015625 0.546875 -1.9921875 0.087890625 q-1.19140625 -0.908203125 -1.1328125 -2.587890625 l0 -4.5313 l2.5391 0 l0 -1.1816 l-2.5488 0 l0 -5.1758 l-1.3867 0 l0 11.123 q-0.01953125 1.171875 0.537109375 2.1484375 q0.91796875 1.552734375 2.5 1.640625 q0.83984375 0.029296875 1.9140625 -0.380859375 q-0.166015625 -0.41015625 -0.4296875 -1.142578125 z M41.591778125 4.3260000000000005 q0.46875 0 0.8056640625 0.33203125 t0.33691 0.80078 t-0.33691 0.80566 t-0.80566 0.33691 t-0.80078 -0.33691 t-0.33203 -0.80566 t0.33203 -0.80078 t0.80078 -0.33203 z M40.908178125 8.73 l1.377 0 l0 10.713 l-1.377 0 l0 -10.713 z M50.517615625 9.648 l-0.87891 0.91797 q-1.11328125 -1.07421875 -2.158203125 -1.07421875 q-0.673828125 0 -1.15234375 0.439453125 t-0.47852 1.0449 q0 0.5078125 0.400390625 0.9765625 q0.390625 0.498046875 1.650390625 1.142578125 q1.54296875 0.791015625 2.08984375 1.533203125 q0.537109375 0.751953125 0.537109375 1.689453125 q0 1.30859375 -0.9228515625 2.221679688 t-2.3096 0.91309 q-0.927734375 0 -1.772460938 -0.3955078125 t-1.3916 -1.1084 l0.86914 -0.98633 q1.0546875 1.19140625 2.236328125 1.19140625 q0.8203125 0 1.401367188 -0.5322265625 t0.58105 -1.2451 q0 -0.595703125 -0.380859375 -1.0546875 t-1.7285 -1.1523 q-1.455078125 -0.732421875 -1.97265625 -1.474609375 q-0.52734375 -0.72265625 -0.52734375 -1.66015625 q0 -1.220703125 0.8349609375 -2.026367188 t2.0947 -0.80566 q1.474609375 0 2.978515625 1.4453125 z M58.281209375 4.901999999999999 l4.5996 0 q1.71875 0 2.646484375 0.41015625 t1.46 1.2598 t0.53223 1.875 q0 0.966796875 -0.4736328125 1.7578125 t-1.3916 1.2793 q1.142578125 0.390625 1.748046875 0.9033203125 t0.94727 1.2451 t0.3418 1.5918 q0 1.748046875 -1.279296875 2.954101563 t-3.418 1.2061 l-5.7129 0 l0 -14.482 z M59.697309375 6.318 l0 4.6387 l2.5684 0 q1.50390625 0 2.211914063 -0.283203125 t1.123 -0.88379 t0.41504 -1.3428 q0 -0.99609375 -0.693359375 -1.5625 t-2.207 -0.56641 l-3.418 0 z M59.697309375 12.412099999999999 l0 5.5566 l3.5352 0 q1.58203125 0 2.319335938 -0.3125 t1.1865 -0.9668 t0.44922 -1.4355 q0 -0.95703125 -0.6298828125 -1.6796875 t-1.7334 -0.98633 q-0.7421875 -0.17578125 -2.568359375 -0.17578125 l-2.5586 0 z M71.552715625 4.3260000000000005 q0.46875 0 0.8056640625 0.33203125 t0.33691 0.80078 t-0.33691 0.80566 t-0.80566 0.33691 t-0.80078 -0.33691 t-0.33203 -0.80566 t0.33203 -0.80078 t0.80078 -0.33203 z M70.869115625 8.73 l1.377 0 l0 10.713 l-1.377 0 l0 -10.713 z M80.156253125 8.203 q2.470703125 0 4.1015625 1.787109375 q1.474609375 1.640625 1.474609375 3.876953125 t-1.5625 3.9111 t-4.0137 1.6748 q-2.4609375 0 -4.018554688 -1.674804688 t-1.5576 -3.9111 q0 -2.2265625 1.474609375 -3.8671875 q1.630859375 -1.796875 4.1015625 -1.796875 z M80.156253125 9.551 q-1.708984375 0 -2.939453125 1.26953125 t-1.2305 3.0664 q0 1.162109375 0.5615234375 2.172851563 t1.5186 1.5527 t2.0898 0.54199 q1.15234375 0 2.104492188 -0.5419921875 t1.5088 -1.5527 t0.55664 -2.1729 q0 -1.796875 -1.23046875 -3.06640625 t-2.9395 -1.2695 z"/></g>
			</g>
		</svg>
	